<svg xmlns:xlink="http://www.w3.org/1999/xlink" width="63" height="63" viewBox="0 0 63 63" fill="none" xmlns="http://www.w3.org/2000/svg">
<path d="M40.6756 44.7763L34.8064 38.9067C34.0053 40.1815 33.0558 41.3754 31.9651 42.4659C30.8746 43.5567 29.6806 44.5061 28.4062 45.3072L34.2754 51.1761C35.1579 52.0586 36.3166 52.4995 37.4757 52.4995C38.6344 52.4995 39.7937 52.0583 40.6759 51.1764C42.4399 49.4114 42.4399 46.5403 40.6756 44.7763Z" fill="#F4F4F4"></path>
<path d="M35.4129 28.2063C35.4129 25.014 34.5724 21.9513 32.9987 19.2689L34.6531 18.5838C35.2808 18.3236 35.5792 17.6038 35.319 16.9758C35.0588 16.348 34.3391 16.05 33.711 16.3099L31.5737 17.1953C31.1561 16.6714 30.7075 16.167 30.2265 15.6863C26.8824 12.3419 22.436 10.5 17.7066 10.5C12.9772 10.5 8.53046 12.3419 5.18634 15.686C1.84222 19.0305 0.000330285 23.4769 0.000330285 28.2063C0.000330285 31.3988 0.840526 34.4616 2.41453 37.1443L0.760095 37.8294C0.132031 38.0896 -0.165978 38.8093 0.0938989 39.4374C0.290329 39.9113 0.748559 40.1975 1.23146 40.1975C1.38816 40.1975 1.54774 40.167 1.70187 40.1033L3.83953 39.2179C4.25706 39.7418 4.70568 40.2459 5.18634 40.7268C8.53078 44.071 12.9772 45.9129 17.7066 45.9129C22.436 45.9129 26.8824 44.071 30.2265 40.7268C33.571 37.3824 35.4129 32.936 35.4129 28.2063ZM17.7066 40.6403C10.8505 40.6403 5.27254 35.0624 5.27254 28.2063C5.27254 21.3501 10.8505 15.7725 17.7066 15.7725C24.5627 15.7725 30.1407 21.3501 30.1407 28.2063C30.1407 35.0624 24.5627 40.6403 17.7066 40.6403Z" fill="#F4F4F4"></path>
<path d="M23.8821 20.3811L20.7357 21.6843C20.265 21.8792 19.9794 22.3329 19.9759 22.8126C19.9746 22.9722 20.0048 23.1353 20.0698 23.292L21.9578 27.8503L11.6787 25.6697C11.2321 25.5745 10.7693 25.7353 10.4771 26.0866C10.1852 26.4378 10.1118 26.9223 10.2864 27.3443L12.5984 32.926L9.68945 34.1309C10.2169 34.8429 10.8366 35.4825 11.5313 36.0317L14.6745 34.7298C14.6752 34.7295 14.6762 34.7295 14.6768 34.7292C15.1478 34.534 15.4334 34.0803 15.4369 33.6009C15.4382 33.441 15.408 33.2779 15.343 33.1209C15.3427 33.1205 15.3423 33.1199 15.342 33.1193L13.455 28.5623L23.7344 30.7429C24.1811 30.8374 24.6438 30.6772 24.9357 30.326C25.2279 29.9745 25.3013 29.4906 25.1264 29.0683L22.8147 23.4871L25.724 22.282C25.1965 21.5699 24.5765 20.9303 23.8821 20.3811Z" fill="#F4F4F4"></path>
</svg>