<svg xmlns:xlink="http://www.w3.org/1999/xlink" width="63" height="63" viewBox="0 0 63 63" fill="none" xmlns="http://www.w3.org/2000/svg">
<path d="M4.15283 24.5759H1.38428C0.619141 24.5759 0 25.1951 0 25.9602C0 26.7253 0.619141 27.3445 1.38428 27.3445H4.15283C4.91797 27.3445 5.53711 26.7253 5.53711 25.9602C5.53711 25.1951 4.91797 24.5759 4.15283 24.5759Z" fill="#F4F4F4"></path>
<path d="M4.81654 17.6539L2.85908 15.6965C2.31838 15.1558 1.44232 15.1558 0.901618 15.6965C0.360919 16.2372 0.360919 17.1133 0.901618 17.654L2.85908 19.6114C3.39987 20.1522 4.27575 20.1522 4.81654 19.6114C5.35724 19.0707 5.35724 18.1946 4.81654 17.6539Z" fill="#F4F4F4"></path>
<path d="M4.81654 32.3079C4.27584 31.7672 3.39978 31.7671 2.85908 32.3079L0.901618 34.2654C0.360919 34.8061 0.360919 35.6821 0.901618 36.2228C1.44241 36.7636 2.31829 36.7636 2.85908 36.2228L4.81654 34.2654C5.35724 33.7247 5.35724 32.8486 4.81654 32.3079Z" fill="#F4F4F4"></path>
<path d="M45.8657 24.5759H43.0972C42.332 24.5759 41.7129 25.1951 41.7129 25.9602C41.7129 26.7253 42.332 27.3445 43.0972 27.3445H45.8657C46.6309 27.3445 47.25 26.7253 47.25 25.9602C47.25 25.1951 46.6309 24.5759 45.8657 24.5759Z" fill="#F4F4F4"></path>
<path d="M46.3458 15.6965C45.8051 15.1558 44.9291 15.1558 44.3884 15.6965L42.4309 17.654C41.8902 18.1947 41.8902 19.0708 42.4309 19.6115C42.9717 20.1523 43.8476 20.1523 44.3884 19.6115L46.3458 17.654C46.8865 17.1133 46.8865 16.2372 46.3458 15.6965Z" fill="#F4F4F4"></path>
<path d="M46.3458 34.2652L44.3884 32.3079C43.8477 31.7672 42.9716 31.7672 42.4309 32.3079C41.8902 32.8486 41.8902 33.7246 42.4309 34.2653L44.3884 36.2227C44.9292 36.7635 45.805 36.7635 46.3458 36.2227C46.8865 35.682 46.8865 34.8059 46.3458 34.2652Z" fill="#F4F4F4"></path>
<path d="M34.0945 11.5874C30.1903 8.41332 25.0683 7.19128 20.0571 8.24564C13.8089 9.55018 8.72057 14.7145 7.39582 20.96C6.26975 26.2741 7.65938 31.6085 11.2066 35.5964C12.6408 37.2102 13.5156 39.1579 13.8025 41.1876H18.0874V28.7291C18.0874 28.193 22.1465 20.2837 22.3862 19.8043C22.8567 18.8661 24.3923 18.8661 24.8628 19.8043C25.1139 20.3065 29.1616 28.2198 29.1616 28.7291V41.1876H33.4513C33.748 39.1676 34.6485 37.1888 36.1235 35.5058C38.7759 32.4817 40.2359 28.5992 40.2359 24.5761C40.2359 19.5514 37.9972 14.7588 34.0945 11.5874Z" fill="#F4F4F4"></path>
<path d="M23.624 31.3756C22.6881 31.3756 21.7558 31.2125 20.8555 30.9148V41.1872H26.3926V30.9148C25.4922 31.2125 24.56 31.3756 23.624 31.3756Z" fill="#F4F4F4"></path>
<path d="M13.9355 43.9558V45.3401C13.9355 47.6301 15.7984 49.4929 18.0884 49.4929H29.1626C31.4526 49.4929 33.3154 47.6301 33.3154 45.3401V43.9558H13.9355Z" fill="#F4F4F4"></path>
<path d="M23.6255 23.519L21.3379 28.0944C22.8163 28.7 24.4348 28.7 25.9132 28.0944L23.6255 23.519Z" fill="#F4F4F4"></path>
<path d="M16.957 52.2615C17.5304 53.8693 19.0526 55.1223 20.8549 55.1223H26.392C28.1943 55.1223 29.7165 53.8693 30.2898 52.2615H16.957Z" fill="#F4F4F4"></path>
</svg>